<?xml version="1.0" encoding="utf-8"?>
<!-- Generator: Adobe Illustrator 20.0.0, SVG Export Plug-In . SVG Version: 6.00 Build 0)  -->
<svg version="1.1" id="Layer_2" xmlns="http://www.w3.org/2000/svg"  x="0px" y="0px"
	 viewBox="0 0 566.9 566.9" style="enable-background:new 0 0 566.9 566.9;" xml:space="preserve">
<style type="text/css">
	.st0{fill:#B8C8CC;}
	.st1{fill:#FFFFFF;}
	.st2{fill:#7D9297;}
	.st3{font-family:'MyriadPro-Regular';}
	.st4{font-size:28.1123px;}
</style>
<g>
	<g>
		<path class="st0" d="M566.3,566.3H-0.6V-0.6h566.9V566.3z M4.1,561.6h557.6V4.1H4.1V561.6z"/>
	</g>
	<g>
		<polygon class="st0" points="205.7,393.2 201.5,437 216,438.4 		"/>
		<polygon class="st0" points="226.3,442.3 224.3,375.9 207.6,380.2 221,439.5 		"/>
		<polygon class="st0" points="224.8,446.8 219.1,443.7 204.9,452.2 215.2,456.2 		"/>
		<polygon class="st0" points="237.1,460.8 228.5,449.8 220.6,457.5 		"/>
		<polygon class="st0" points="197.2,467.3 201.2,474 209.3,463.5 		"/>
		<polygon class="st0" points="200.9,455.6 198,462.2 208.8,458.7 		"/>
		<polygon class="st0" points="172.5,448.5 177.8,449.8 179.9,435.3 168.9,440 		"/>
		<polygon class="st0" points="196.1,323.1 230.6,307.5 260.5,287.5 256.2,282.9 196.1,282.9 		"/>
		<polygon class="st0" points="205.2,476.4 221.8,478.9 215.2,463.5 		"/>
		<polygon class="st0" points="264.1,284.5 265.6,282.9 262.6,282.9 		"/>
		<polygon class="st0" points="182.7,448.4 186.8,446.3 194.6,439.7 184.6,435 		"/>
		<polygon class="st0" points="267.7,287.5 297.6,307.5 332.2,323.1 332.2,282.9 272,282.9 		"/>
		<polygon class="st0" points="169.7,434.6 178.4,430.8 172.6,426 		"/>
		<polygon class="st0" points="168.5,362.1 173.7,420.8 184,429.5 196.9,435.6 202.3,379.9 		"/>
		<polygon class="st0" points="363.6,435.1 384.8,420.2 360.1,411.5 359.2,421.7 		"/>
		<polygon class="st0" points="495.8,450.3 514.2,426 508.3,412.5 490.4,431.2 		"/>
		<polygon class="st0" points="331.4,435.6 344.2,429.5 354.6,420.8 359.7,362.1 325.9,379.9 		"/>
		<polygon class="st0" points="460.6,433 460.7,424.4 385.2,394.6 391.8,417.6 		"/>
		<polygon class="st0" points="358.7,357.4 335.8,331.8 326.8,374.2 		"/>
		<polygon class="st0" points="491.7,452.9 486.1,433.3 464.1,438.1 451.4,450.6 		"/>
		<polygon class="st0" points="490.8,413.2 490.3,424.5 502.7,411.5 		"/>
		<polygon class="st0" points="486,414.9 465.4,424.3 465.3,433 485.5,428.7 		"/>
		<polygon class="st0" points="379.6,392.2 362.7,382.2 360.5,406.7 386.4,415.8 		"/>
		<polygon class="st0" points="201.5,374.2 192.4,331.8 169.6,357.4 		"/>
		<polygon class="st0" points="224.3,371 229.1,313.3 196.4,328.1 206.6,375.7 		"/>
		<path class="st0" d="M336.9,282.9v43l27.3,30.7c0.1,0.1,0.1,0.2,0.1,0.2c0.1,0.1,0.1,0.1,0.2,0.2c0,0.1,0,0.1,0.1,0.2
			c0.1,0.1,0.1,0.3,0.1,0.4c0,0.2,0.1,0.3,0.1,0.5c0,0.1,0,0.1,0,0.2l-1.6,18.7l19.5,11.6l80.4,31.7l24.5-11.2c0,0,0.1,0,0.1,0
			c0.1,0,0.2-0.1,0.3-0.1c0.1,0,0.2-0.1,0.3-0.1l20.6-2.8c0.1,0,0.1,0,0.2,0c0.1,0,0.2,0,0.3,0c0.2,0,0.4,0,0.6,0.1
			c0.1,0,0.2,0.1,0.2,0.1c0.2,0.1,0.4,0.2,0.6,0.3c0,0,0.1,0,0.1,0.1c0,0,0,0,0,0.1c0.2,0.2,0.4,0.4,0.5,0.7l7.8,18
			c0.3,0.8,0.2,1.7-0.3,2.3l-22,29.1c0,0.1-0.1,0.1-0.2,0.1c-0.1,0.2-0.3,0.3-0.5,0.4c-0.1,0.1-0.2,0.1-0.3,0.2
			c-0.1,0-0.1,0.1-0.2,0.1c-0.2,0.1-0.4,0.1-0.6,0.1l0,0h0c0,0,0,0,0,0l0,0c0,0-0.1,0-0.1,0l-48.9-2.8c-0.1,0-0.2,0-0.2,0
			l-81.7-13.5l-4.2,10c-0.3,0.7-0.9,1.2-1.6,1.4l-9,2.2c-0.1,0-0.1,0-0.2,0c0,0,0,0-0.1,0c0,0-0.1,0-0.1,0c-0.1,0-0.2,0-0.2,0
			c-0.2,0-0.4,0-0.6-0.1c-0.1,0-0.1,0-0.2-0.1c-0.1,0-0.2-0.1-0.4-0.1l-8.3-4.4c-0.1-0.1-0.3-0.2-0.4-0.3l-10-8.5l-12,1.1l13.2,7.9
			c0.1,0.1,0.2,0.1,0.3,0.2c0.1,0.1,0.1,0.1,0.2,0.2c0.2,0.2,0.4,0.4,0.5,0.7l5.9,13.3c0.1,0.3,0.2,0.6,0.2,1c0,0.1,0,0.1,0,0.2
			c0,0.3-0.1,0.6-0.3,0.9c0,0,0,0,0,0.1l-7.1,12.1c0,0,0,0,0,0l0,0c0,0.1-0.1,0.1-0.1,0.1c-0.1,0.2-0.3,0.4-0.4,0.5c0,0-0.1,0-0.1,0
			c-0.1,0.1-0.2,0.1-0.3,0.2c-0.2,0.1-0.4,0.2-0.6,0.2c0,0-0.1,0-0.1,0l-24.7,3.8c-0.1,0-0.2,0-0.4,0c-0.3,0-0.6-0.1-0.9-0.2
			c0,0,0,0,0,0c-0.1-0.1-0.3-0.2-0.4-0.3c-0.1-0.1-0.3-0.1-0.4-0.3l0,0c0,0,0,0,0,0l-17.1-17.6c-0.1-0.1-0.1-0.1-0.1-0.2
			c-0.1-0.1-0.1-0.2-0.2-0.2c0,0,0-0.1-0.1-0.1c-0.1-0.1-0.1-0.2-0.1-0.4c0-0.1-0.1-0.2-0.1-0.2c0,0,0-0.1,0-0.1c0,0,0-0.1,0-0.1
			c0,0,0,0,0,0l-2.7-30.2l-16.3-11.7l-16.4,11.7l-2.7,30.1c0,0,0,0,0,0c0,0,0,0.1,0,0.1c0,0,0,0.1,0,0.1c0,0.1-0.1,0.2-0.1,0.2
			c0,0.1-0.1,0.3-0.1,0.4c0,0,0,0.1-0.1,0.1c-0.1,0.1-0.1,0.2-0.2,0.2c-0.1,0.1-0.1,0.2-0.1,0.2l-17.1,17.6c0,0,0,0,0,0l0,0
			c-0.1,0.1-0.2,0.2-0.4,0.3c-0.1,0.1-0.2,0.2-0.4,0.3c0,0,0,0,0,0c-0.3,0.1-0.6,0.2-0.9,0.2c-0.1,0-0.2,0-0.4,0l-24.7-3.8
			c0,0-0.1,0-0.1,0c-0.2,0-0.4-0.1-0.6-0.2c-0.1-0.1-0.2-0.1-0.3-0.2c0,0-0.1,0-0.1,0c-0.2-0.1-0.3-0.3-0.4-0.5
			c0-0.1-0.1-0.1-0.1-0.1l0,0c0,0,0,0,0,0l-7.2-12.1c0,0,0,0,0-0.1c-0.2-0.3-0.2-0.6-0.3-0.9c0-0.1,0-0.1,0-0.2c0-0.3,0-0.7,0.2-1
			l5.9-13.3c0.1-0.3,0.3-0.5,0.5-0.7c0.1-0.1,0.1-0.1,0.2-0.2c0.1-0.1,0.2-0.2,0.3-0.2l13.2-7.9l-12-1.1l-10,8.5
			c-0.1,0.1-0.3,0.2-0.4,0.3l-8.3,4.4c-0.1,0-0.1,0-0.2,0.1c-0.1,0-0.1,0-0.2,0.1c-0.2,0.1-0.5,0.1-0.7,0.1c0,0,0,0,0,0l0,0l0,0
			c0,0,0,0,0,0c-0.1,0-0.2,0-0.3,0c0,0,0,0-0.1,0c-0.1,0-0.1,0-0.2,0l-9-2.2c-0.7-0.2-1.3-0.7-1.6-1.4l-4.9-11.7
			c-0.1-0.3-0.2-0.6-0.2-0.9c0-0.1,0-0.2,0-0.3c0-0.2,0-0.3,0.1-0.5l5.4-16.4l-5.5-63.4c0-0.1,0-0.1,0-0.2c0-0.2,0-0.3,0.1-0.5
			c0-0.1,0.1-0.3,0.1-0.4c0-0.1,0-0.1,0.1-0.2c0-0.1,0.1-0.1,0.2-0.2c0.1-0.1,0.1-0.2,0.1-0.2l27.3-30.7v-43H1.7V564H564V282.9
			H336.9z"/>
		<polygon class="st0" points="321.7,375.7 331.8,328.1 299.2,313.3 303.9,371 		"/>
		<polygon class="st0" points="248.6,380.5 261.4,345.8 233.6,315.1 229,371.4 		"/>
		<polygon class="st0" points="279.6,380.5 299.3,371.4 294.6,315.1 266.8,345.8 		"/>
		<polygon class="st0" points="292.9,310 264.1,290.7 235.3,310 264.1,341.8 		"/>
		<polygon class="st0" points="290.2,465.7 301.9,477.7 308.6,462.1 		"/>
		<polygon class="st0" points="226.4,477.7 238.1,465.7 219.7,462.1 		"/>
		<polygon class="st0" points="307.6,457.5 299.7,449.8 291.2,460.8 		"/>
		<polygon class="st0" points="306.5,478.9 323,476.4 313,463.5 		"/>
		<path class="st0" d="M299.3,376.6l-18.5,8.5l4.2,47.7c0,0.1,0.1,0.2,0.1,0.3c0,0.1,0,0.1,0,0.2l2.2,24.9l9.9-12.7L299.3,376.6z"/>
		<polygon class="st0" points="231.1,445.4 241,458.1 247.5,385.1 229,376.6 		"/>
		<polygon class="st0" points="327.1,474 331,467.3 318.9,463.5 		"/>
		<path class="st0" d="M266.4,358.2l-0.3,59.7c0.1,0.1,0.2,0.1,0.3,0.2c0.1,0.2,0.2,0.4,0.3,0.5l13.2,9.5l-3.9-44L266.4,358.2z"/>
		<polygon class="st0" points="248.3,428.2 261.5,418.8 261.7,358.5 252.2,384.2 		"/>
		<polygon class="st0" points="312.3,438.4 326.8,437 322.5,393.2 		"/>
		<polygon class="st0" points="350.4,449.8 355.8,448.5 359.3,440 348.4,435.3 		"/>
		<polygon class="st0" points="349.9,430.8 358.5,434.6 355.7,426 		"/>
		<polygon class="st0" points="333.6,439.7 341.4,446.3 345.5,448.4 343.6,435 		"/>
		<polygon class="st0" points="390.4,422.1 368.5,437.4 445.1,450.1 458.2,437.3 		"/>
		<polygon class="st0" points="303.4,446.8 313,456.2 323.3,452.2 309.2,443.7 		"/>
		<polygon class="st0" points="330.3,462.2 327.6,456.1 327.4,455.6 319.5,458.7 		"/>
		<polygon class="st0" points="320.6,380.2 304,375.9 301.9,442.3 307.2,439.5 		"/>
	</g>
	<g>
		<path class="st1" d="M111.1,439.5c0,9.9-8.1,18-18,18s-18-7.9-18-17.8c0,0-0.4-5.8,3.6-10.9h5c0,0-5.2,3.7-5.2,10.9
			c0,7.9,6.6,14,14.5,14c7.9,0,14.5-6.2,14.5-14.1c0-4.5-2.2-7.7-3.6-9.3h-6.3v8.9l-3.4-1.2v-11.6h11.1
			C111.4,432.1,111.1,439.5,111.1,439.5z"/>
		<path class="st1" d="M85.6,386.3c5.8,0,8.3,3.2,9.2,7.5l13.7-9.4l2.4,2.9l-15.7,10.5c0,0.2,0,0.5,0,0.8v6.3h15.1v3.8H76v-10.1
			C76,392.1,77.8,386.3,85.6,386.3z M91.8,404.9v-6.3c0-4.7-1.4-8.5-6.2-8.5c-4.9,0-6.2,3.8-6.2,8.5v6.3H91.8z"/>
		<path class="st1" d="M106.9,347.1l3.4,1.2v19.9H75.8v-21l3.4,1.2v16.1h12.2v-14.3l3.4,1.2v13.1h12.1V347.1z"/>
		<path class="st1" d="M110.3,318v3.8H94.8L76.7,334l-1.2-3.7l15.6-10.3l-15.6-10.3l1.2-3.7L94.8,318H110.3z"/>
		<path class="st2" d="M111.1,251.3c0,9.9-8.1,18-18,18s-18-8.1-18-18c0,0-0.2-5.4,3.4-10.4h4.8c0,0-4.8,3.7-4.8,10.4
			c0,7.9,6.6,14.1,14.5,14.1c7.9,0,14.5-6.2,14.5-14.1c0-6.3-4.2-10-4.7-10.4h4.8C111.3,246,111.1,251.3,111.1,251.3z"/>
		<path class="st2" d="M102.7,203.6v15.5l7.6,3.2v3.7l-34.9-14.7l34.9-14.7v3.7L102.7,203.6z M84.3,211.3l15,6.3V205L84.3,211.3z"/>
		<path class="st2" d="M79.4,167.2h30.9v3.7H79.4v11.8l-3.4-1.2v-26.1l3.4,1.2V167.2z"/>
	</g>
	<text transform="matrix(1 0 0 1 113.9219 493.698)" class="st3 st4">     </text>
	<path class="st2" d="M196.1,273.1l10.2-43.8l49.9,53.5h6.4l-55.4-59.4l-3.5-39.5c4.6,3.2,13.6,8.9,30.9,19l9.8,11.8
		c0.3,0.4,0.8,0.7,1.2,0.8l17.2,4.3c0.3,0.1,0.6,0.2,0.9,0.2c0,0,0.1,0,0.1,0c0,0,0.1,0,0.1,0c0.3,0,0.6-0.1,0.9-0.2l17.2-4.3
		c0.5-0.1,0.9-0.4,1.2-0.8l9.8-11.8c18.5-10.8,27.4-16.5,31.8-19.6l-3.6,40.1l-55.4,59.4h6.4l49.9-53.5l10.2,43.8v9.8h4.7v-10
		c0-0.2,0-0.4-0.1-0.5l-11.2-48l4.1-45.3c0.1-0.6-0.1-1.1-0.4-1.5c1.5-7.1,6.8-31.1,6.8-31.1l0,0c0-0.1,0-0.1,0-0.2
		c0-0.2,0-0.4,0-0.6c0-0.1,0-0.2,0-0.3l-8.4-32.2l8.3-23.8c0-0.1,0-0.1,0-0.2c0.1-0.2,0.1-0.4,0.1-0.6c0-0.1,0-0.2,0-0.3
		c0-0.1,0-0.2,0-0.3l-5.9-19.1c0-0.1-0.1-0.2-0.1-0.2c0,0,0-0.1,0-0.1c0,0,0,0-0.1-0.1c-0.1-0.2-0.3-0.5-0.5-0.6c0,0-0.1,0-0.1-0.1
		c-0.2-0.1-0.4-0.3-0.6-0.3c-0.1,0-0.1-0.1-0.2-0.1c-0.1,0-0.1-0.1-0.2-0.1c-0.2,0-0.3,0-0.5,0c0,0-0.1,0-0.1,0
		c-0.3,0-0.5,0.1-0.8,0.2c0,0,0,0-0.1,0l-12.4,6.2c-0.1,0.1-0.3,0.2-0.4,0.2l-30.6,23.8h-19.5h-0.2h-19.5l-30.6-23.8
		c-0.1-0.1-0.3-0.2-0.4-0.2l-12.4-6.2c0,0,0,0-0.1,0c-0.3-0.1-0.5-0.2-0.8-0.2c0,0-0.1,0-0.1,0c-0.2,0-0.3,0-0.5,0
		c-0.1,0-0.1,0-0.2,0.1c-0.1,0-0.1,0-0.2,0.1c-0.2,0.1-0.4,0.2-0.6,0.3c0,0-0.1,0-0.1,0.1c-0.2,0.2-0.4,0.4-0.5,0.6c0,0,0,0-0.1,0.1
		c0,0,0,0.1,0,0.1c0,0.1-0.1,0.2-0.1,0.2l-5.9,19.1c0,0.1,0,0.2,0,0.3c0,0.1,0,0.2,0,0.3c0,0.2,0,0.5,0.1,0.7c0,0,0,0.1,0,0.1l0,0.1
		c0,0,0,0,0,0l8.3,23.8l-8.4,32.2c0,0.1,0,0.2,0,0.3c0,0.2,0,0.4,0,0.6c0,0.1,0,0.1,0,0.2l0,0c0,0,6.5,29.8,7.1,32.8l4.1,45.2
		l-11.2,48c0,0.2-0.1,0.4-0.1,0.5v10h4.7V273.1z M279.9,211.3l-16.2,4.1l-16.2-4.1l-3.6-4.4l7.5,3.1c0.3,0.1,0.6,0.2,0.9,0.2
		c0.5,0,0.9-0.1,1.3-0.4l10.1-6.8l10.1,6.8c0.4,0.3,0.8,0.4,1.3,0.4c0.3,0,0.6-0.1,0.9-0.2l7.5-3.1L279.9,211.3z M240.8,200.6
		l11.5-9l7.9,8.1l-8.1,5.4L240.8,200.6z M275.4,205.1l-8.1-5.4l7.9-8.1l11.5,9L275.4,205.1z M324.4,177.8
		c-2.5,2.3-18.1,11.9-32.9,20.6l-9.7-7.7h8.6c0.4,0,0.8-0.1,1.1-0.3l30.6-16.4c0.4-0.2,0.8-0.6,1-1l4.3-8.7
		C326,170.4,324.7,176,324.4,177.8z M319.2,170.3L289.7,186H278l4.8-18.5l13.4-2.6c0.6-0.1,1.2-0.5,1.6-1.1l8.5-14l23.7-1.4
		L319.2,170.3z M284.1,162.6l1.2-4.8l7-7.1l8.2-0.5l-6.2,10.4L284.1,162.6z M330.7,143.7l-39.6,2.4c-0.6,0-1.1,0.3-1.5,0.7l-2,2
		l9.1-35.2l26.5,1.6L330.7,143.7z M323.5,110.5l-20.7-1.3l26.6-15.6L323.5,110.5z M326.9,74.3l4,13.1l-26.5,15.5L326.9,74.3z
		 M210.8,77.5l31,24.1c0.4,0.3,0.9,0.5,1.4,0.5h20.3h0.2h20.3c0.5,0,1-0.2,1.4-0.5l31-24.1l2.9-1.4l-26.4,33.6c0,0,0,0,0,0
		c0,0-0.1,0.1-0.1,0.2c0,0,0,0.1,0,0.1c-0.1,0.1-0.1,0.2-0.2,0.3c0,0.1-0.1,0.2-0.1,0.3c0,0,0,0,0,0.1l-19.9,76.7l-9.1,9.4l-9.1-9.4
		l-19.9-76.7c0,0,0,0,0-0.1c0-0.1-0.1-0.2-0.1-0.3c0-0.1-0.1-0.2-0.2-0.3c0,0,0,0,0-0.1c0-0.1-0.1-0.1-0.1-0.2c0,0,0,0,0,0
		l-26.4-33.6L210.8,77.5z M243.4,162.6l-10.2-2l-6.2-10.4l8.2,0.5l7,7.1L243.4,162.6z M200.6,74.3l22.5,28.6l-26.5-15.5L200.6,74.3z
		 M198,93.7l26.6,15.6l-20.7,1.3L198,93.7z M204.2,115.2l26.5-1.6l9.1,35.2l-2-2c-0.4-0.4-0.9-0.7-1.5-0.7l-39.6-2.4L204.2,115.2z
		 M197.6,148.5l23.7,1.4l8.5,14c0.3,0.6,0.9,1,1.6,1.1l13.4,2.6l4.8,18.5h-11.8l-29.4-15.7L197.6,148.5z M200.2,164.3l4.3,8.7
		c0.2,0.4,0.6,0.8,1,1l30.6,16.4c0.3,0.2,0.7,0.3,1.1,0.3h8.6l-9.7,7.7c-14.8-8.7-30.4-18.3-32.9-20.6
		C202.7,176,201.5,170.4,200.2,164.3z"/>
</g>
</svg>
